HIERARCHY
ROOT hip
{
	OFFSET 0.000000 0.000000 0.000000 
	CHANNELS 6 Xposition Yposition Zposition Xrotation Zrotation Yrotation
	JOINT abdomen
	{
		OFFSET 0.000000 3.402643 0.000000 
		CHANNELS 3 Xrotation Zrotation Yrotation
		JOINT chest
		{
			OFFSET 0.000000 8.438565 -0.680529 
			CHANNELS 3 Xrotation Zrotation Yrotation
			JOINT neck
			{
				OFFSET 0.000000 10.207942 -0.272212 
				CHANNELS 3 Xrotation Zrotation Yrotation
				JOINT head
				{
					OFFSET 0.000000 3.130431 0.000000 
					CHANNELS 3 Xrotation Zrotation Yrotation
					End Site
					{
						OFFSET 0.000000 3.130435 0.000000 
					}
				}
			}
			JOINT lCollar
			{
				OFFSET 3.470700 6.669187 -0.816635 
				CHANNELS 3 Yrotation Zrotation Xrotation
				JOINT lShldr
				{
					OFFSET 3.198488 0.000000 0.000000 
					CHANNELS 3 Zrotation Yrotation Xrotation
					JOINT lForeArm
					{
						OFFSET 10.139888 0.000000 0.000000 
						CHANNELS 3 Yrotation Zrotation Xrotation
						JOINT lHand
						{
							OFFSET 8.370511 0.000000 0.000000 
							CHANNELS 3 Zrotation Yrotation Xrotation
							End Site
							{
								OFFSET 4.083176 0.000000 0.000000 
							}
						}
					}
				}
			}
			JOINT rCollar
			{
				OFFSET -3.470700 6.669187 -0.816635 
				CHANNELS 3 Yrotation Zrotation Xrotation
				JOINT rShldr
				{
					OFFSET -3.198488 0.000000 0.000000 
					CHANNELS 3 Zrotation Yrotation Xrotation
					JOINT rForeArm
					{
						OFFSET -10.139888 0.000000 0.000000 
						CHANNELS 3 Yrotation Zrotation Xrotation
						JOINT rHand
						{
							OFFSET -8.370511 0.000000 0.000000 
							CHANNELS 3 Zrotation Yrotation Xrotation
							End Site
							{
								OFFSET -4.083176 0.000000 0.000000 
							}
						}
					}
				}
			}
		}
	}
	JOINT lThigh
	{
		OFFSET 5.308129 -1.633274 1.361059 
		CHANNELS 3 Xrotation Zrotation Yrotation
		JOINT lShin
		{
			OFFSET -2.041588 -20.007561 0.000000 
			CHANNELS 3 Xrotation Zrotation Yrotation
			JOINT lFoot
			{
				OFFSET 0.000000 -19.190928 -1.224953 
				CHANNELS 3 Xrotation Yrotation Zrotation
				End Site
				{
					OFFSET 0.000000 -2.449906 4.627600 
				}
			}
		}
	}
	JOINT rThigh
	{
		OFFSET -5.308129 -1.633274 1.361059 
		CHANNELS 3 Xrotation Zrotation Yrotation
		JOINT rShin
		{
			OFFSET 2.041588 -20.007561 0.000000 
			CHANNELS 3 Xrotation Zrotation Yrotation
			JOINT rFoot
			{
				OFFSET 0.000000 -19.190928 -1.224953 
				CHANNELS 3 Xrotation Yrotation Zrotation
				End Site
				{
					OFFSET 0.000000 -2.449906 4.627600 
				}
			}
		}
	}
}
MOTION
Frames: 17
Frame Time: 0.033333
-0.078565 46.325031 -7.282692 20.787062 -1.825459 4.172846 38.549477 -0.558081 0.262211 18.587814 2.630532 0.252497 -8.544922 -0.001505 -0.009645 9.893408 -2.001334 3.067475 2.000000 -2.000000 0.000000 -84.743118 -47.951508 8.371380 -15.213800 -0.837920 8.338353 5.622626 19.756771 -18.606514 -2.000000 2.000000 0.000000 4.338236 109.354332 -29.865568 32.318645 0.684185 8.433943 2.759526 -18.423836 -18.072838 -43.614395 4.959697 0.047190 75.337097 1.457269 -4.166448 -36.444592 2.943729 1.476172 -60.782146 -0.595643 -2.956539 48.381138 0.283375 3.363777 -11.458926 -5.122423 -2.327145 
0.477384 45.653828 -13.930823 20.782881 -1.860765 3.915659 39.944202 -1.483624 1.675262 20.135904 2.660646 1.779501 -8.544922 -0.001505 -0.009645 5.673486 -0.887507 0.688884 2.000000 -2.000000 0.000000 -86.369141 -51.413910 12.032219 -13.924075 -0.845178 8.322023 5.400327 19.723591 -18.588175 -2.000000 2.000000 0.000000 22.420370 110.773438 -8.864716 34.435993 0.662905 8.446228 3.300694 -18.340822 -18.031984 -48.997292 5.057762 -0.042945 77.869606 1.642544 -4.209286 -34.988411 2.995292 1.805044 -54.143223 -0.048763 -3.522984 56.044434 -0.175942 3.661997 -24.557337 -4.737023 -3.003069 
1.063386 46.780838 -20.549030 20.833012 -1.297249 3.030070 41.798832 -2.915475 3.291190 22.193270 2.176986 3.836277 -8.544922 -0.001505 -0.009645 -0.586039 0.270036 -2.982812 2.000000 -2.000000 0.000000 -89.551445 -55.709118 17.971148 -12.743855 -0.857322 8.319067 5.148398 19.677212 -18.574789 -2.000000 2.000000 0.000000 39.041142 110.561516 8.183288 35.641422 0.659386 8.455568 3.455386 -18.321487 -18.017483 -55.458149 4.794411 0.291888 77.471260 1.603064 -4.185899 -29.679853 2.863462 2.085888 -39.766640 -0.048845 -2.954341 47.201199 0.367910 3.313726 -28.412230 -3.281457 -2.688662 
1.499129 48.398529 -27.317377 20.894859 -0.341773 1.860749 38.126492 -4.111465 4.538047 18.667112 1.855957 5.615469 -8.544922 -0.001505 -0.009645 4.295185 1.616716 -6.662768 2.000000 -2.000000 0.000000 -91.957199 -48.445610 23.428535 -11.712277 -0.874431 8.319251 4.885917 19.638153 -18.561972 -2.000000 2.000000 0.000000 25.706236 102.601677 -8.301561 36.234859 0.655165 8.463889 3.349186 -18.337866 -18.025393 -61.314526 4.481798 0.759397 74.517784 1.408584 -4.170444 -25.489849 2.705464 2.088966 -28.626469 -0.713333 -2.068043 43.250374 0.589973 3.131772 -23.435381 -2.379362 -1.809749 
1.639370 49.265007 -34.381256 20.949772 0.470605 0.763329 35.195049 -4.627483 4.678250 15.737548 1.806833 6.098735 -8.544922 -0.001505 -0.009645 9.189993 2.324125 -7.824636 2.000000 -2.000000 0.000000 -91.960533 -42.007671 24.632801 -10.925099 -0.877045 8.317388 4.623500 19.598909 -18.548998 -2.000000 2.000000 0.000000 -13.458596 99.135826 -50.305412 36.548580 0.656082 8.464353 3.106105 -18.366451 -18.044512 -66.170380 4.599119 0.183710 65.954712 0.804758 -3.986901 -25.654457 2.693085 1.286488 -16.528746 -1.484527 -1.297639 37.385101 0.892469 2.819005 -15.295700 -1.567538 -1.156357 
1.424007 49.896080 -41.800808 20.942589 1.082363 -0.311043 37.325188 -4.193838 2.399122 17.631123 2.138783 4.060005 -8.544922 -0.001505 -0.009645 6.865080 0.780975 -3.938788 2.000000 -2.000000 0.000000 -89.976265 -44.782879 19.306505 -10.452755 -0.878314 8.316065 4.381869 19.553423 -18.537018 -2.000000 2.000000 0.000000 -3.964578 101.400459 -40.116024 36.883320 0.650752 8.464673 2.865789 -18.407606 -18.065096 -68.684326 4.774535 -0.330670 54.824322 0.091771 -3.667531 -26.693649 3.040833 0.614310 -37.788895 -2.568014 -1.875442 80.823845 -1.874605 4.160932 29.449863 -2.545343 1.630183 
0.993267 49.911205 -49.435627 20.912056 1.492288 -1.566250 41.120750 -3.086594 -0.826990 21.176912 2.794586 1.033630 -8.544922 -0.001505 -0.009645 6.044121 -1.453647 1.869849 2.000000 -2.000000 0.000000 -86.020821 -50.126572 10.358449 -10.391173 -0.878233 8.306067 4.167791 19.524748 -18.525366 -2.000000 2.000000 0.000000 14.847548 107.033104 -18.450609 37.569901 0.643436 8.471768 2.759526 -18.423836 -18.072838 -67.226410 4.696345 0.750173 47.569977 -0.336082 -3.376326 -28.904499 2.673140 0.822302 -39.075401 -3.261240 -1.034317 79.840569 -1.787083 4.148608 31.389545 -2.421952 2.088323 
0.427300 49.355267 -57.205723 20.874594 1.837820 -2.830066 44.646927 -1.802824 -3.872280 24.534479 3.620500 -1.814149 -8.544922 -0.001505 -0.009645 9.103340 -4.530971 6.809947 2.000000 -2.000000 0.000000 -81.332253 -53.349995 0.895565 -11.169879 -0.879658 8.312505 3.956470 19.483234 -18.505610 -2.000000 2.000000 0.000000 23.942327 114.035339 -5.826662 38.769730 0.637460 8.475183 2.759526 -18.423836 -18.072838 -62.578548 4.246571 2.064076 37.568195 -0.865448 -2.897130 -24.676241 2.279467 0.973857 -38.786976 -3.866588 -0.281480 73.360313 -1.346863 4.082753 24.476402 -2.701279 1.911330 
-0.138667 48.223259 -64.975807 20.811674 2.003299 -3.962576 48.028397 -0.319760 -6.464931 27.841774 4.647390 -4.288511 -8.544922 -0.001505 -0.009645 11.101385 -8.341296 10.369350 2.000000 -2.000000 0.000000 -77.825928 -54.532646 -7.321477 -12.927800 -0.860829 8.325863 3.722364 19.451460 -18.496571 -2.000000 2.000000 0.000000 28.936424 120.871643 2.733355 40.006550 0.629605 8.498788 2.759526 -18.423836 -18.072838 -53.768993 3.113811 2.384848 12.780577 -1.736543 -1.381338 3.198447 2.652662 0.860277 -43.556618 -4.189111 0.237649 75.533562 -1.474505 4.122798 19.625229 -3.166196 1.769035 
-0.604463 46.470299 -72.645760 20.744516 2.057828 -4.820883 49.305496 0.685768 -8.303797 29.106100 5.399211 -6.014441 -8.544922 -0.001505 -0.009645 11.738276 -10.969524 12.661356 2.000000 -2.000000 0.000000 -78.273216 -51.107426 -10.534932 -15.287697 -0.832342 8.330824 3.460278 19.411411 -18.482878 -2.000000 2.000000 0.000000 28.357634 124.396500 4.383280 41.347023 0.625264 8.505131 2.759526 -18.423836 -18.072838 -44.487392 1.942489 2.265614 -4.529014 -1.912977 -0.137704 25.381290 3.340352 0.695200 -49.250420 -4.286838 0.626465 79.216339 -1.738194 4.164891 14.158937 -3.652260 1.504218 
-1.060241 45.969364 -80.305588 20.721630 1.971694 -5.250358 46.708889 0.661235 -9.244048 26.503702 5.400730 -6.879694 -8.544922 -0.001505 -0.009645 11.927039 -10.947994 14.197595 2.000000 -2.000000 0.000000 -82.538315 -40.366673 -8.239874 -17.869118 -0.813744 8.343122 3.190939 19.357021 -18.465693 -2.000000 2.000000 0.000000 19.658049 123.040268 -4.544317 41.781567 0.619613 8.507264 2.759526 -18.423836 -18.072838 -64.888214 2.606532 3.223205 47.823353 -0.328252 -3.394876 1.332171 4.847160 0.495893 -55.346836 -4.228354 0.888050 83.278931 -2.050617 4.186320 8.500275 -4.110989 1.127267 
-1.511014 47.271645 -87.960541 20.772280 1.610895 -4.418994 42.711159 0.389354 -9.753456 22.493797 5.116098 -7.501723 -8.544922 -0.001505 -0.009645 9.712438 -9.207017 15.894892 2.000000 -2.000000 0.000000 -86.163628 -27.436634 -6.274273 -20.286474 -0.789339 8.359534 2.929003 19.316607 -18.451662 -2.000000 2.000000 0.000000 6.668751 121.866806 -18.630062 40.852139 0.626955 8.501998 2.759526 -18.423836 -18.072838 -56.925049 1.990987 3.272601 56.149620 0.169680 -3.728000 -9.181471 4.579449 0.609748 -61.418182 -3.984153 0.945285 86.603195 -2.284737 4.167298 3.134964 -4.459636 0.669292 
-1.866620 49.094730 -95.520226 20.874454 0.918198 -2.457141 38.782280 0.175234 -9.688138 18.535019 4.707282 -7.764898 -8.544922 -0.001505 -0.009645 7.030386 -6.814021 16.858160 2.000000 -2.000000 0.000000 -88.515823 -16.015266 -4.977020 -22.200085 -0.775804 8.372978 2.657094 19.274557 -18.435631 -2.000000 2.000000 0.000000 -6.043797 121.947128 -32.817734 39.638588 0.633201 8.486115 2.759526 -18.423836 -18.072838 -40.149887 1.483770 2.503705 50.524803 -0.169567 -3.502928 -14.099194 2.915138 0.541099 -66.958511 -3.632597 0.680086 88.054695 -2.382803 4.191205 -1.495204 -4.703401 0.159939 
-1.976807 49.986340 -102.834641 20.953074 0.176739 -0.721731 36.383106 0.269897 -9.078026 16.140078 4.354991 -7.580409 -8.544922 -0.001505 -0.009645 5.603212 -5.188492 16.700712 2.000000 -2.000000 0.000000 -89.385429 -9.849488 -3.950953 -23.192698 -0.766436 8.371165 2.395310 19.233782 -18.421263 -2.000000 2.000000 0.000000 -13.079753 122.453300 -41.174656 38.234539 0.644394 8.472583 2.759526 -18.423836 -18.072838 -20.193121 1.699192 1.276246 38.261879 -0.848149 -2.916721 -12.515927 1.419402 0.244549 -71.863167 -3.339841 0.136310 83.873718 -2.089684 4.182588 -4.824977 -4.546246 -0.525681 
-1.811525 50.246746 -109.873390 20.935360 -0.449253 0.514107 36.530876 0.494966 -7.677372 16.288265 4.113528 -6.589130 -8.544922 -0.001505 -0.009645 4.450711 -4.422321 15.051613 2.000000 -2.000000 0.000000 -88.889435 -10.358270 -2.093142 -23.558540 -0.762226 8.379598 2.143636 19.194296 -18.405346 -2.000000 2.000000 0.000000 -11.560513 120.929008 -40.674000 36.754444 0.652721 8.460863 2.759526 -18.423836 -18.072838 -16.857145 2.820659 0.824505 54.239346 0.054225 -3.649174 18.561132 1.579983 -1.360714 -74.876549 -3.134602 -0.597590 74.256218 -1.396055 4.121302 -4.453193 -4.138182 -1.078714 
-1.490975 49.921207 -116.757004 20.911303 -1.673528 1.800065 38.510216 0.603030 -5.569757 18.301481 3.862479 -4.899031 -8.544922 -0.001505 -0.009645 2.114991 -3.765312 12.239507 2.000000 -2.000000 0.000000 -87.805611 -14.977951 0.681358 -23.863113 -0.762488 8.377057 1.884110 19.149328 -18.381897 -2.000000 2.000000 0.000000 -2.772751 118.003700 -32.705521 35.318874 0.658496 8.459002 2.759526 -18.423836 -18.072838 -28.932852 3.797964 0.820507 65.271996 0.764954 -3.982323 38.559685 1.084692 -1.557871 -74.769409 -2.763622 -1.580966 58.734524 -0.341581 3.755215 4.485363 -3.781966 -1.360169 
-0.078565 46.325031 -122.548729 20.787062 -1.825459 4.172846 38.549477 -0.558081 0.262211 18.587814 2.630532 0.252497 -8.544922 -0.001505 -0.009645 9.893408 -2.001334 3.067475 2.000000 -2.000000 0.000000 -84.743118 -47.951508 8.371380 -15.213800 -0.837920 8.338353 5.622626 19.756771 -18.606514 -2.000000 2.000000 0.000000 4.338236 109.354332 -29.865568 32.318645 0.684185 8.433943 2.759526 -18.423836 -18.072838 -43.614395 4.959693 0.047191 75.337097 1.457264 -4.166451 -36.444592 2.943721 1.476166 -60.782146 -0.595642 -2.956540 48.381138 0.283379 3.363777 -11.458931 -5.122417 -2.327143 
